<?xml version="1.0" encoding="utf-8"?>
<!-- Generator: Adobe Illustrator 19.0.0, SVG Export Plug-In . SVG Version: 6.00 Build 0)  -->
<svg version="1.1" xmlns="http://www.w3.org/2000/svg" xmlns:xlink="http://www.w3.org/1999/xlink" x="0px" y="0px"
	 viewBox="0 0 1000 270" style="enable-background:new 0 0 1000 270;" xml:space="preserve">
<style type="text/css">
	.st0{display:none;}
	.st1{display:inline;fill:#00558C;}
	.st2{font-family:'Vrinda-Bold';}
	.st3{font-size:250px;}
	.st4{fill:#00558C;}
</style>
<g id="LOGO_x5F_v01_xA0_Image_1_" class="st0">
	<text transform="matrix(1 0 0 1 67 210)" class="st1 st2 st3">ROMEC</text>
</g>
<g id="Layer_2">
	<g>
		<path class="st4" d="M169.7,167.2c-0.3-3-1-5.8-2.2-8.4c-1.2-2.6-2.8-4.8-4.7-6.7c-1.9-1.9-4.3-3.3-7-4.4c-2.7-1.1-5.7-1.6-9-1.6
			h-32.2L97.5,211H67.3l42.4-161.1H182c4.3,0,8.4,0.1,12.2,0.3c3.9,0.2,7.5,0.7,10.9,1.4c3.4,0.7,6.5,1.8,9.4,3.3
			c2.9,1.5,5.5,3.5,7.8,6c4.1,4.5,6.6,9.9,7.6,16.4c1,6.4,0.5,13-1.2,19.8c-2.6,9.8-7.2,18.3-13.8,25.3c-6.6,7-14.6,12.4-23.9,16.2
			c2.8,2.6,5.1,5.9,6.8,9.9c1.7,4,2.8,9,3.4,14.8L206,211h-32.5L169.7,167.2z M121.8,118.5h40c5.4,0,10.1-0.4,14.1-1.1
			c4-0.7,7.5-2,10.4-3.7c2.9-1.7,5.3-3.9,7.1-6.7c1.9-2.7,3.3-6.1,4.4-10.1c1.9-7.2,1-12.4-2.5-15.7c-3.6-3.3-10-5-19.3-5h-43.1
			L121.8,118.5z"/>
		<path class="st4" d="M349.8,47.2c11.2,0,21.1,2,29.5,6c8.4,4,15.1,9.6,20.1,16.8c5,7.2,8,16,9.2,26.2c1.2,10.3,0.1,21.6-3.2,34.1
			c-3.2,12.3-8.1,23.5-14.6,33.8c-6.5,10.2-14.2,19-22.9,26.3s-18.4,13-29,17.1c-10.6,4.1-21.5,6.1-32.9,6.1c-11.4,0-21.3-2-29.7-6
			c-8.4-4-15.1-9.7-20-17s-7.9-16.1-9.1-26.3c-1.1-10.2-0.1-21.5,3.2-33.9c3.3-12.5,8.2-23.9,14.8-34.2c6.6-10.3,14.3-19,23.1-26.2
			c8.8-7.2,18.5-12.8,29-16.8C327.7,49.2,338.6,47.2,349.8,47.2z M312.9,186.8c6.8,0,13.5-1.3,19.9-3.8c6.5-2.6,12.4-6.3,17.8-11.1
			s10.2-10.8,14.4-17.8c4.2-7,7.4-14.9,9.7-23.8c2.4-9,3.3-16.9,2.7-23.9c-0.5-7-2.2-12.8-5.1-17.6c-2.9-4.8-6.9-8.4-11.9-10.9
			c-5-2.5-10.9-3.7-17.6-3.7c-6.8,0-13.5,1.3-19.9,3.8c-6.4,2.5-12.3,6.2-17.8,11c-5.5,4.8-10.3,10.7-14.5,17.7
			c-4.2,7-7.4,14.8-9.8,23.6c-2.3,8.9-3.3,16.8-2.8,23.8c0.5,7,2.2,12.9,5,17.8s6.8,8.5,11.9,11.1
			C300.3,185.5,306.2,186.8,312.9,186.8z"/>
		<path class="st4" d="M568.8,211h-29.2l27.2-103.3l-62,103.3h-25.3l-7.2-103.3L445.1,211h-29.2l42.4-161.1h39.1l7.1,114.9
			l67.7-114.9h38.9L568.8,211z"/>
		<path class="st4" d="M731,211H607.8l42.4-161.1h119.6l-7.3,27.7H673l-9.6,36.4h83.9l-7.2,27.5h-83.9l-11,41.9h93.1L731,211z"/>
		<path class="st4" d="M895.7,100.5c0.3-4.2-0.2-7.9-1.5-11.1c-1.3-3.3-3.1-6-5.6-8.2c-2.5-2.2-5.6-3.9-9.3-5.1
			c-3.7-1.2-7.8-1.8-12.2-1.8c-6.9,0-13.5,1.2-19.6,3.7c-6.2,2.4-11.8,6-17,10.7c-5.1,4.7-9.7,10.6-13.6,17.5
			c-3.9,7-7.1,15-9.5,24.1c-2.4,9-3.4,17-3.2,24c0.3,7,1.7,12.9,4.4,17.8s6.4,8.5,11.2,11c4.8,2.5,10.6,3.7,17.4,3.7
			c9.7,0,18.4-2.5,26-7.5c7.7-5,13.6-12.3,17.7-21.8h30.9c-3.5,9-8.1,17-13.7,24c-5.6,7-12,12.8-19,17.6c-7.1,4.8-14.7,8.4-23,10.8
			c-8.3,2.4-16.8,3.7-25.7,3.7c-11.6,0-21.6-2-29.9-5.9c-8.3-3.9-14.7-9.5-19.3-16.7c-4.6-7.2-7.3-16-8.2-26.2
			c-0.8-10.3,0.4-21.7,3.8-34.4c3.3-12.7,8.2-24.2,14.4-34.4c6.3-10.3,13.6-19,22.1-26.2c8.4-7.2,17.8-12.8,28.2-16.7
			c10.3-3.9,21.3-5.9,32.7-5.9c8.3,0,15.8,1.3,22.6,3.8c6.7,2.5,12.4,6.1,17.1,10.7s8.1,10.3,10.3,16.8c2.3,6.6,3,13.9,2.3,22H895.7
			z"/>
	</g>
</g>
</svg>
